<mxfile host="app.diagrams.net" modified="2021-06-07T01:27:13.705Z" agent="5.0 (Windows NT 10.0; Win64; x64) AppleWebKit/537.36 (KHTML, like Gecko) Chrome/91.0.4472.77 Safari/537.36" etag="qSNpZ8wQMlWQQmeUOgKU" version="14.6.13" type="github">
  <diagram id="thZNzYZiRM2foO_taKMO" name="Page-1">
    <mxGraphModel dx="1038" dy="617" grid="1" gridSize="10" guides="1" tooltips="1" connect="1" arrows="1" fold="1" page="1" pageScale="1" pageWidth="827" pageHeight="1169" math="0" shadow="0">
      <root>
        <mxCell id="0" />
        <mxCell id="1" parent="0" />
        <mxCell id="SP6R3R3iO7EPl2cbAC8q-1" value="tokens" style="rounded=0;whiteSpace=wrap;html=1;" vertex="1" parent="1">
          <mxGeometry x="160" y="80" width="120" height="30" as="geometry" />
        </mxCell>
        <mxCell id="SP6R3R3iO7EPl2cbAC8q-2" value="segments" style="rounded=0;whiteSpace=wrap;html=1;" vertex="1" parent="1">
          <mxGeometry x="300" y="80" width="120" height="30" as="geometry" />
        </mxCell>
        <mxCell id="SP6R3R3iO7EPl2cbAC8q-3" value="dep_tree_ids" style="rounded=0;whiteSpace=wrap;html=1;" vertex="1" parent="1">
          <mxGeometry x="520" y="80" width="120" height="30" as="geometry" />
        </mxCell>
        <mxCell id="SP6R3R3iO7EPl2cbAC8q-4" value="Bert" style="rounded=0;whiteSpace=wrap;html=1;" vertex="1" parent="1">
          <mxGeometry x="160" y="140" width="260" height="50" as="geometry" />
        </mxCell>
        <mxCell id="SP6R3R3iO7EPl2cbAC8q-5" value="" style="endArrow=classic;html=1;" edge="1" parent="1">
          <mxGeometry width="50" height="50" relative="1" as="geometry">
            <mxPoint x="219.5" y="110" as="sourcePoint" />
            <mxPoint x="219.5" y="140" as="targetPoint" />
            <Array as="points">
              <mxPoint x="219.5" y="130" />
            </Array>
          </mxGeometry>
        </mxCell>
        <mxCell id="SP6R3R3iO7EPl2cbAC8q-6" value="" style="endArrow=classic;html=1;" edge="1" parent="1">
          <mxGeometry width="50" height="50" relative="1" as="geometry">
            <mxPoint x="359.5" y="110" as="sourcePoint" />
            <mxPoint x="359.5" y="140" as="targetPoint" />
            <Array as="points">
              <mxPoint x="359.5" y="130" />
            </Array>
          </mxGeometry>
        </mxCell>
        <mxCell id="SP6R3R3iO7EPl2cbAC8q-7" value="Highway" style="rounded=0;whiteSpace=wrap;html=1;" vertex="1" parent="1">
          <mxGeometry x="450" y="140" width="260" height="50" as="geometry" />
        </mxCell>
        <mxCell id="SP6R3R3iO7EPl2cbAC8q-8" value="" style="endArrow=classic;html=1;" edge="1" parent="1">
          <mxGeometry width="50" height="50" relative="1" as="geometry">
            <mxPoint x="579.5" y="110" as="sourcePoint" />
            <mxPoint x="579.5" y="140" as="targetPoint" />
            <Array as="points">
              <mxPoint x="579.5" y="130" />
            </Array>
          </mxGeometry>
        </mxCell>
        <mxCell id="SP6R3R3iO7EPl2cbAC8q-9" value="cls" style="rounded=0;whiteSpace=wrap;html=1;fillColor=#f8cecc;glass=0;sketch=0;shadow=0;strokeColor=#b85450;" vertex="1" parent="1">
          <mxGeometry x="170" y="220" width="30" height="30" as="geometry" />
        </mxCell>
        <mxCell id="SP6R3R3iO7EPl2cbAC8q-10" value="" style="endArrow=classic;html=1;entryX=0.5;entryY=0;entryDx=0;entryDy=0;" edge="1" parent="1" target="SP6R3R3iO7EPl2cbAC8q-71">
          <mxGeometry width="50" height="50" relative="1" as="geometry">
            <mxPoint x="440" y="600" as="sourcePoint" />
            <mxPoint x="440" y="630" as="targetPoint" />
            <Array as="points">
              <mxPoint x="440" y="620" />
            </Array>
          </mxGeometry>
        </mxCell>
        <mxCell id="SP6R3R3iO7EPl2cbAC8q-12" value="" style="endArrow=classic;html=1;" edge="1" parent="1">
          <mxGeometry width="50" height="50" relative="1" as="geometry">
            <mxPoint x="289.5" y="190" as="sourcePoint" />
            <mxPoint x="289.5" y="220" as="targetPoint" />
            <Array as="points">
              <mxPoint x="289.5" y="210" />
            </Array>
          </mxGeometry>
        </mxCell>
        <mxCell id="SP6R3R3iO7EPl2cbAC8q-28" value="" style="rounded=0;whiteSpace=wrap;html=1;fillColor=#ffe6cc;glass=0;sketch=0;shadow=0;" vertex="1" parent="1">
          <mxGeometry x="200" y="220" width="30" height="30" as="geometry" />
        </mxCell>
        <mxCell id="SP6R3R3iO7EPl2cbAC8q-29" value="" style="rounded=0;whiteSpace=wrap;html=1;fillColor=#ffe6cc;glass=0;sketch=0;shadow=0;" vertex="1" parent="1">
          <mxGeometry x="230" y="220" width="30" height="30" as="geometry" />
        </mxCell>
        <mxCell id="SP6R3R3iO7EPl2cbAC8q-30" value="" style="rounded=0;whiteSpace=wrap;html=1;fillColor=#ffe6cc;glass=0;sketch=0;shadow=0;" vertex="1" parent="1">
          <mxGeometry x="260" y="220" width="30" height="30" as="geometry" />
        </mxCell>
        <mxCell id="SP6R3R3iO7EPl2cbAC8q-31" value="" style="rounded=0;whiteSpace=wrap;html=1;fillColor=#ffe6cc;glass=0;sketch=0;shadow=0;" vertex="1" parent="1">
          <mxGeometry x="290" y="220" width="30" height="30" as="geometry" />
        </mxCell>
        <mxCell id="SP6R3R3iO7EPl2cbAC8q-32" value="" style="rounded=0;whiteSpace=wrap;html=1;fillColor=#ffe6cc;glass=0;sketch=0;shadow=0;" vertex="1" parent="1">
          <mxGeometry x="320" y="220" width="30" height="30" as="geometry" />
        </mxCell>
        <mxCell id="SP6R3R3iO7EPl2cbAC8q-33" value="" style="rounded=0;whiteSpace=wrap;html=1;fillColor=#ffe6cc;glass=0;sketch=0;shadow=0;" vertex="1" parent="1">
          <mxGeometry x="350" y="220" width="30" height="30" as="geometry" />
        </mxCell>
        <mxCell id="SP6R3R3iO7EPl2cbAC8q-34" value="" style="rounded=0;whiteSpace=wrap;html=1;fillColor=#ffe6cc;glass=0;sketch=0;shadow=0;" vertex="1" parent="1">
          <mxGeometry x="380" y="220" width="30" height="30" as="geometry" />
        </mxCell>
        <mxCell id="SP6R3R3iO7EPl2cbAC8q-37" value="" style="endArrow=classic;html=1;" edge="1" parent="1">
          <mxGeometry width="50" height="50" relative="1" as="geometry">
            <mxPoint x="579.5" y="190" as="sourcePoint" />
            <mxPoint x="579.5" y="220" as="targetPoint" />
            <Array as="points">
              <mxPoint x="579.5" y="210" />
            </Array>
          </mxGeometry>
        </mxCell>
        <mxCell id="SP6R3R3iO7EPl2cbAC8q-39" value="" style="rounded=0;whiteSpace=wrap;html=1;fillColor=#ffe6cc;glass=0;sketch=0;shadow=0;strokeColor=#d79b00;" vertex="1" parent="1">
          <mxGeometry x="200" y="280" width="30" height="30" as="geometry" />
        </mxCell>
        <mxCell id="SP6R3R3iO7EPl2cbAC8q-40" value="" style="rounded=0;whiteSpace=wrap;html=1;fillColor=#ffe6cc;glass=0;sketch=0;shadow=0;strokeColor=#d79b00;" vertex="1" parent="1">
          <mxGeometry x="230" y="280" width="30" height="30" as="geometry" />
        </mxCell>
        <mxCell id="SP6R3R3iO7EPl2cbAC8q-41" value="" style="rounded=0;whiteSpace=wrap;html=1;fillColor=#ffe6cc;glass=0;sketch=0;shadow=0;strokeColor=#d79b00;" vertex="1" parent="1">
          <mxGeometry x="260" y="280" width="30" height="30" as="geometry" />
        </mxCell>
        <mxCell id="SP6R3R3iO7EPl2cbAC8q-42" value="" style="rounded=0;whiteSpace=wrap;html=1;fillColor=#ffe6cc;glass=0;sketch=0;shadow=0;strokeColor=#d79b00;" vertex="1" parent="1">
          <mxGeometry x="290" y="280" width="30" height="30" as="geometry" />
        </mxCell>
        <mxCell id="SP6R3R3iO7EPl2cbAC8q-43" value="" style="rounded=0;whiteSpace=wrap;html=1;fillColor=#ffe6cc;glass=0;sketch=0;shadow=0;strokeColor=#d79b00;" vertex="1" parent="1">
          <mxGeometry x="320" y="280" width="30" height="30" as="geometry" />
        </mxCell>
        <mxCell id="SP6R3R3iO7EPl2cbAC8q-44" value="" style="rounded=0;whiteSpace=wrap;html=1;fillColor=#ffe6cc;glass=0;sketch=0;shadow=0;strokeColor=#d79b00;" vertex="1" parent="1">
          <mxGeometry x="350" y="280" width="30" height="30" as="geometry" />
        </mxCell>
        <mxCell id="SP6R3R3iO7EPl2cbAC8q-45" value="" style="rounded=0;whiteSpace=wrap;html=1;fillColor=#ffe6cc;glass=0;sketch=0;shadow=0;strokeColor=#d79b00;" vertex="1" parent="1">
          <mxGeometry x="380" y="280" width="30" height="30" as="geometry" />
        </mxCell>
        <mxCell id="SP6R3R3iO7EPl2cbAC8q-46" value="" style="rounded=0;whiteSpace=wrap;html=1;fillColor=#ffe6cc;glass=0;sketch=0;shadow=0;strokeColor=#d79b00;" vertex="1" parent="1">
          <mxGeometry x="170" y="280" width="30" height="30" as="geometry" />
        </mxCell>
        <mxCell id="SP6R3R3iO7EPl2cbAC8q-47" value="" style="endArrow=classic;html=1;" edge="1" parent="1">
          <mxGeometry width="50" height="50" relative="1" as="geometry">
            <mxPoint x="290" y="250" as="sourcePoint" />
            <mxPoint x="290" y="280" as="targetPoint" />
            <Array as="points">
              <mxPoint x="290" y="270" />
            </Array>
          </mxGeometry>
        </mxCell>
        <mxCell id="SP6R3R3iO7EPl2cbAC8q-48" value="" style="endArrow=none;dashed=1;html=1;dashPattern=1 3;strokeWidth=2;" edge="1" parent="1">
          <mxGeometry width="50" height="50" relative="1" as="geometry">
            <mxPoint x="170" y="280" as="sourcePoint" />
            <mxPoint x="200" y="250" as="targetPoint" />
            <Array as="points">
              <mxPoint x="170" y="280" />
            </Array>
          </mxGeometry>
        </mxCell>
        <mxCell id="SP6R3R3iO7EPl2cbAC8q-49" value="" style="endArrow=none;dashed=1;html=1;dashPattern=1 3;strokeWidth=2;" edge="1" parent="1">
          <mxGeometry width="50" height="50" relative="1" as="geometry">
            <mxPoint x="380" y="280" as="sourcePoint" />
            <mxPoint x="410" y="250" as="targetPoint" />
            <Array as="points">
              <mxPoint x="380" y="280" />
            </Array>
          </mxGeometry>
        </mxCell>
        <mxCell id="SP6R3R3iO7EPl2cbAC8q-52" value="" style="endArrow=classic;html=1;exitX=1;exitY=0.75;exitDx=0;exitDy=0;" edge="1" parent="1" source="SP6R3R3iO7EPl2cbAC8q-34">
          <mxGeometry width="50" height="50" relative="1" as="geometry">
            <mxPoint x="430" y="250" as="sourcePoint" />
            <mxPoint x="410" y="290" as="targetPoint" />
            <Array as="points">
              <mxPoint x="430" y="270" />
            </Array>
          </mxGeometry>
        </mxCell>
        <mxCell id="SP6R3R3iO7EPl2cbAC8q-53" value="mask" style="rounded=0;whiteSpace=wrap;html=1;shadow=0;glass=0;sketch=0;strokeColor=#d79b00;fillColor=#ffe6cc;" vertex="1" parent="1">
          <mxGeometry x="170" y="330" width="240" height="30" as="geometry" />
        </mxCell>
        <mxCell id="SP6R3R3iO7EPl2cbAC8q-54" value="outputs" style="rounded=0;whiteSpace=wrap;html=1;shadow=0;glass=0;sketch=0;strokeColor=#d79b00;fillColor=#ffe6cc;" vertex="1" parent="1">
          <mxGeometry x="460" y="220" width="240" height="30" as="geometry" />
        </mxCell>
        <mxCell id="SP6R3R3iO7EPl2cbAC8q-56" value="" style="endArrow=classic;html=1;" edge="1" parent="1">
          <mxGeometry width="50" height="50" relative="1" as="geometry">
            <mxPoint x="579.5" y="250" as="sourcePoint" />
            <mxPoint x="580" y="330" as="targetPoint" />
            <Array as="points">
              <mxPoint x="579.5" y="270" />
            </Array>
          </mxGeometry>
        </mxCell>
        <mxCell id="SP6R3R3iO7EPl2cbAC8q-57" value="" style="endArrow=classic;html=1;" edge="1" parent="1">
          <mxGeometry width="50" height="50" relative="1" as="geometry">
            <mxPoint x="289" y="310" as="sourcePoint" />
            <mxPoint x="289" y="330" as="targetPoint" />
            <Array as="points">
              <mxPoint x="289" y="330" />
            </Array>
          </mxGeometry>
        </mxCell>
        <mxCell id="SP6R3R3iO7EPl2cbAC8q-58" value="mask" style="rounded=0;whiteSpace=wrap;html=1;shadow=0;glass=0;sketch=0;strokeColor=#d79b00;fillColor=#ffe6cc;" vertex="1" parent="1">
          <mxGeometry x="460" y="330" width="240" height="30" as="geometry" />
        </mxCell>
        <mxCell id="SP6R3R3iO7EPl2cbAC8q-59" value="R-GAT" style="rounded=0;whiteSpace=wrap;html=1;shadow=0;glass=0;sketch=0;strokeColor=#000000;gradientColor=none;" vertex="1" parent="1">
          <mxGeometry x="240" y="390" width="380" height="40" as="geometry" />
        </mxCell>
        <mxCell id="SP6R3R3iO7EPl2cbAC8q-60" value="" style="endArrow=classic;html=1;" edge="1" parent="1">
          <mxGeometry width="50" height="50" relative="1" as="geometry">
            <mxPoint x="320" y="360" as="sourcePoint" />
            <mxPoint x="320" y="390" as="targetPoint" />
            <Array as="points">
              <mxPoint x="320" y="380" />
            </Array>
          </mxGeometry>
        </mxCell>
        <mxCell id="SP6R3R3iO7EPl2cbAC8q-61" value="" style="endArrow=classic;html=1;" edge="1" parent="1">
          <mxGeometry width="50" height="50" relative="1" as="geometry">
            <mxPoint x="530" y="360" as="sourcePoint" />
            <mxPoint x="530" y="390" as="targetPoint" />
            <Array as="points">
              <mxPoint x="530" y="380" />
            </Array>
          </mxGeometry>
        </mxCell>
        <mxCell id="SP6R3R3iO7EPl2cbAC8q-62" value="outputs" style="rounded=0;whiteSpace=wrap;html=1;shadow=0;glass=0;sketch=0;strokeColor=#d79b00;fillColor=#ffe6cc;" vertex="1" parent="1">
          <mxGeometry x="310" y="460" width="240" height="30" as="geometry" />
        </mxCell>
        <mxCell id="SP6R3R3iO7EPl2cbAC8q-63" value="" style="endArrow=classic;html=1;" edge="1" parent="1">
          <mxGeometry width="50" height="50" relative="1" as="geometry">
            <mxPoint x="429.5" y="430" as="sourcePoint" />
            <mxPoint x="429.5" y="460" as="targetPoint" />
            <Array as="points">
              <mxPoint x="429.5" y="450" />
            </Array>
          </mxGeometry>
        </mxCell>
        <mxCell id="SP6R3R3iO7EPl2cbAC8q-64" value="cls" style="rounded=0;whiteSpace=wrap;html=1;fillColor=#f8cecc;glass=0;sketch=0;shadow=0;strokeColor=#b85450;" vertex="1" parent="1">
          <mxGeometry x="310" y="510" width="240" height="30" as="geometry" />
        </mxCell>
        <mxCell id="SP6R3R3iO7EPl2cbAC8q-65" value="+" style="text;html=1;align=center;verticalAlign=middle;resizable=0;points=[];autosize=1;strokeColor=none;" vertex="1" parent="1">
          <mxGeometry x="420" y="490" width="20" height="20" as="geometry" />
        </mxCell>
        <mxCell id="SP6R3R3iO7EPl2cbAC8q-66" value="" style="endArrow=classic;html=1;exitX=0;exitY=0.75;exitDx=0;exitDy=0;entryX=0;entryY=0.667;entryDx=0;entryDy=0;entryPerimeter=0;" edge="1" parent="1" source="SP6R3R3iO7EPl2cbAC8q-9" target="SP6R3R3iO7EPl2cbAC8q-64">
          <mxGeometry width="50" height="50" relative="1" as="geometry">
            <mxPoint x="120" y="300" as="sourcePoint" />
            <mxPoint x="120" y="330" as="targetPoint" />
            <Array as="points">
              <mxPoint x="120" y="320" />
            </Array>
          </mxGeometry>
        </mxCell>
        <mxCell id="SP6R3R3iO7EPl2cbAC8q-67" value="" style="endArrow=classic;html=1;" edge="1" parent="1">
          <mxGeometry width="50" height="50" relative="1" as="geometry">
            <mxPoint x="429.5" y="540" as="sourcePoint" />
            <mxPoint x="429.5" y="570" as="targetPoint" />
            <Array as="points">
              <mxPoint x="429.5" y="560" />
            </Array>
          </mxGeometry>
        </mxCell>
        <mxCell id="SP6R3R3iO7EPl2cbAC8q-68" value="outputs" style="rounded=0;whiteSpace=wrap;html=1;shadow=0;glass=0;sketch=0;strokeColor=#82b366;fillColor=#d5e8d4;" vertex="1" parent="1">
          <mxGeometry x="310" y="570" width="240" height="30" as="geometry" />
        </mxCell>
        <mxCell id="SP6R3R3iO7EPl2cbAC8q-69" value="消极" style="rounded=0;whiteSpace=wrap;html=1;fillColor=#ffe6cc;glass=0;sketch=0;shadow=0;strokeColor=#d79b00;" vertex="1" parent="1">
          <mxGeometry x="385" y="640" width="30" height="30" as="geometry" />
        </mxCell>
        <mxCell id="SP6R3R3iO7EPl2cbAC8q-70" value="中性" style="rounded=0;whiteSpace=wrap;html=1;fillColor=#ffe6cc;glass=0;sketch=0;shadow=0;strokeColor=#d79b00;" vertex="1" parent="1">
          <mxGeometry x="415" y="640" width="30" height="30" as="geometry" />
        </mxCell>
        <mxCell id="SP6R3R3iO7EPl2cbAC8q-71" value="积极" style="rounded=0;whiteSpace=wrap;html=1;fillColor=#ffe6cc;glass=0;sketch=0;shadow=0;strokeColor=#d79b00;" vertex="1" parent="1">
          <mxGeometry x="445" y="640" width="30" height="30" as="geometry" />
        </mxCell>
        <mxCell id="SP6R3R3iO7EPl2cbAC8q-72" value="" style="endArrow=classic;html=1;entryX=0.5;entryY=0;entryDx=0;entryDy=0;" edge="1" parent="1" target="SP6R3R3iO7EPl2cbAC8q-69">
          <mxGeometry width="50" height="50" relative="1" as="geometry">
            <mxPoint x="419" y="600" as="sourcePoint" />
            <mxPoint x="419" y="630" as="targetPoint" />
            <Array as="points">
              <mxPoint x="419" y="620" />
            </Array>
          </mxGeometry>
        </mxCell>
        <mxCell id="SP6R3R3iO7EPl2cbAC8q-73" value="" style="endArrow=classic;html=1;entryX=0.5;entryY=0;entryDx=0;entryDy=0;" edge="1" parent="1" target="SP6R3R3iO7EPl2cbAC8q-70">
          <mxGeometry width="50" height="50" relative="1" as="geometry">
            <mxPoint x="429.5" y="600" as="sourcePoint" />
            <mxPoint x="429.5" y="630" as="targetPoint" />
            <Array as="points">
              <mxPoint x="429.5" y="620" />
            </Array>
          </mxGeometry>
        </mxCell>
      </root>
    </mxGraphModel>
  </diagram>
</mxfile>
